<svg width="13" height="13" viewBox="0 0 13 13" fill="none" xmlns="http://www.w3.org/2000/svg">
<g clip-path="url(#clip0_9261_5943)">
<path d="M6.5 13C10.0899 13 13 10.0899 13 6.5C13 2.91015 10.0899 0 6.5 0C2.91015 0 0 2.91015 0 6.5C0 10.0899 2.91015 13 6.5 13Z" fill="white"/>
<path d="M12.5957 4.23926H0.404295C0.143 4.94342 0 5.70503 0 6.50012C0 7.2952 0.143 8.05681 0.404295 8.76097H12.5957C12.857 8.05681 13 7.2952 13 6.50012C13 5.70503 12.857 4.94342 12.5957 4.23926Z" fill="#0052B4"/>
<path d="M6.50008 0C4.53 0 2.76477 0.876586 1.57275 2.26086H11.4274C10.2354 0.876586 8.47017 0 6.50008 0Z" fill="#D80027"/>
<path d="M11.4274 10.7393H1.57275C2.76477 12.1235 4.53 13.0001 6.50008 13.0001C8.47017 13.0001 10.2354 12.1235 11.4274 10.7393Z" fill="#D80027"/>
</g>
<defs>
<clipPath id="clip0_9261_5943">
<rect width="13" height="13" fill="white"/>
</clipPath>
</defs>
</svg>
