<svg xmlns="http://www.w3.org/2000/svg" width="24" height="24" viewBox="0 0 24 24">
    <path data-name="Rectangle 153030" style="fill:none" d="M0 0h24v24H0z"/>
    <g data-name="Group 97095">
        <g data-name="Group 97094">
            <path data-name="Path 183608" d="M43.337 321.244a2.421 2.421 0 1 0 2.421 2.422 2.424 2.424 0 0 0-2.421-2.422zm0 3.591a1.169 1.169 0 1 1 1.169-1.169 1.17 1.17 0 0 1-1.169 1.169z" transform="translate(-36.676 -306.356)" style="stroke:#000;stroke-width:.2px"/>
        </g>
    </g>
    <g data-name="Group 97097">
        <g data-name="Group 97096">
            <path data-name="Path 183609" d="M329.748 321.244a2.421 2.421 0 1 0 2.421 2.422 2.424 2.424 0 0 0-2.421-2.422zm0 3.591a1.169 1.169 0 1 1 1.169-1.169 1.17 1.17 0 0 1-1.169 1.169z" transform="translate(-312.273 -306.356)" style="stroke:#000;stroke-width:.2px"/>
        </g>
    </g>
    <g data-name="Group 97099">
        <g data-name="Group 97098">
            <path data-name="Path 183610" d="M2.38 144.864a.626.626 0 0 0-.557.339l-1.753 3.4a.626.626 0 0 0-.07.287v5.052a.626.626 0 0 0 .626.626H2.15v-1.253h-.9v-4.274l1.509-2.928h4.777v-1.252z" transform="translate(2.695 -136.635)" style="stroke:#000;stroke-width:.2px"/>
        </g>
    </g>
    <g data-name="Group 97101">
        <g data-name="Group 97100">
            <path data-name="Rectangle 153607" style="stroke:#000;stroke-width:.2px" d="M0 0h7.139v1.252H0z" transform="translate(8.519 16.684)"/>
        </g>
    </g>
    <g data-name="Group 97103">
        <g data-name="Group 97102">
            <path data-name="Path 183611" d="M194.81 62.479h-11.168a.626.626 0 0 0-.626.626V74.67h1.252V63.732h9.916v10.312h-1.5V75.3h2.129a.626.626 0 0 0 .626-.626V63.105a.626.626 0 0 0-.629-.626z" transform="translate(-173.411 -57.36)" style="stroke:#000;stroke-width:.2px"/>
        </g>
    </g>
    <g data-name="Group 97105">
        <g data-name="Group 97104">
            <path data-name="Rectangle 153608" style="stroke:#000;stroke-width:.2px" d="M0 0h6.91v1.252H0z" transform="translate(3.321 11.653)"/>
        </g>
    </g>
</svg>
