<svg width="20" height="20" viewBox="0 0 20 20" fill="none" xmlns="http://www.w3.org/2000/svg">
<g clip-path="url(#clip0_9329_48410)">
<path d="M9.99998 16.1666C13.4057 16.1666 16.1666 13.4057 16.1666 9.99992C16.1666 6.59416 13.4057 3.83325 9.99998 3.83325C6.59422 3.83325 3.83331 6.59416 3.83331 9.99992C3.83331 13.4057 6.59422 16.1666 9.99998 16.1666Z" stroke="black" stroke-width="1.2"/>
<path d="M10.6867 11.0608C10.6422 11.2615 10.622 11.4669 10.6267 11.6724H9.37668C9.3696 11.2642 9.41782 10.8569 9.52002 10.4616C9.66191 10.1589 9.87456 9.89481 10.14 9.6916L10.4775 9.39577C10.5829 9.30896 10.6735 9.20568 10.7458 9.08994C10.8703 8.904 10.9367 8.68532 10.9367 8.4616C10.9393 8.20597 10.8672 7.95515 10.7292 7.73994C10.6434 7.62512 10.529 7.53478 10.3974 7.4779C10.2658 7.42103 10.1216 7.39961 9.97918 7.41577C9.82756 7.40325 9.6755 7.43414 9.54078 7.50482C9.40605 7.5755 9.29422 7.68306 9.21835 7.81494C9.07198 8.06831 8.99468 8.35566 8.99418 8.64827H7.65418C7.63152 8.25106 7.70313 7.85413 7.86316 7.48988C8.0232 7.12563 8.26712 6.80441 8.57502 6.55244C8.96826 6.28012 9.4386 6.14135 9.91668 6.1566C10.5436 6.13347 11.1587 6.33172 11.6542 6.7166C11.8905 6.92059 12.076 7.1768 12.196 7.46494C12.3161 7.75307 12.3674 8.0652 12.3458 8.3766C12.3598 8.77738 12.2551 9.17337 12.045 9.51494C11.8529 9.78284 11.6256 10.0236 11.3692 10.2308L11.0408 10.5158C10.8714 10.6583 10.7481 10.848 10.6867 11.0608ZM10.7233 13.8824H9.34252V12.3824H10.7217L10.7233 13.8824Z" fill="black"/>
</g>
<defs>
<clipPath id="clip0_9329_48410">
<rect width="20" height="20" fill="white"/>
</clipPath>
</defs>
</svg>
