<svg width="24" height="24" viewBox="0 0 24 24" fill="none" xmlns="http://www.w3.org/2000/svg">
<path fill-rule="evenodd" clip-rule="evenodd" d="M11.9608 20.2059C12.0317 20.2354 12.1078 20.2504 12.1846 20.25C12.2614 20.2504 12.3374 20.2354 12.4083 20.2059C12.4793 20.1765 12.5436 20.1332 12.5975 20.0786L17.0855 15.5906C18.0561 14.6211 18.7172 13.3854 18.9854 12.0401C19.2535 10.6947 19.1166 9.30002 18.592 8.03248C18.0673 6.76494 17.1785 5.68148 16.038 4.91918C14.8974 4.15689 13.5564 3.75 12.1846 3.75C10.8127 3.75 9.47173 4.15689 8.33119 4.91918C7.19065 5.68148 6.30183 6.76494 5.77718 8.03248C5.25253 9.30002 5.11562 10.6947 5.38377 12.0401C5.65193 13.3854 6.31309 14.6211 7.28362 15.5906L11.7716 20.0786C11.8256 20.1332 11.8899 20.1765 11.9608 20.2059ZM8.98337 5.89681C9.93081 5.2632 11.0448 4.92461 12.1846 4.92381C13.3244 4.92461 14.4383 5.2632 15.3858 5.89681C16.3332 6.53042 17.0716 7.43063 17.5077 8.48369C17.9438 9.53676 18.0579 10.6955 17.8358 11.8134C17.6137 12.9313 17.0652 13.9583 16.2596 14.7647L12.1846 18.8397L8.10954 14.7647C7.30399 13.9583 6.7555 12.9313 6.53335 11.8134C6.31121 10.6955 6.42539 9.53676 6.86146 8.48369C7.29753 7.43063 8.03592 6.53042 8.98337 5.89681ZM10.5615 12.7685C11.042 13.0895 11.607 13.2609 12.1848 13.2609C12.9598 13.2609 13.703 12.953 14.2509 12.4051C14.7989 11.8571 15.1067 11.1139 15.1067 10.339C15.1067 9.76112 14.9354 9.1962 14.6143 8.71571C14.2932 8.23521 13.8369 7.8607 13.303 7.63955C12.7691 7.4184 12.1816 7.36054 11.6148 7.47328C11.048 7.58602 10.5274 7.8643 10.1188 8.27293C9.71014 8.68157 9.43186 9.20219 9.31912 9.76898C9.20638 10.3358 9.26424 10.9233 9.48539 11.4572C9.70654 11.9911 10.081 12.4474 10.5615 12.7685ZM11.2109 8.88134C11.4992 8.68871 11.8381 8.58589 12.1848 8.58589C12.6498 8.58589 13.0957 8.77059 13.4245 9.09936C13.7533 9.42814 13.938 9.87405 13.938 10.339C13.938 10.6857 13.8351 11.0247 13.6425 11.313C13.4499 11.6013 13.1761 11.826 12.8557 11.9587C12.5354 12.0914 12.1829 12.1261 11.8428 12.0584C11.5028 11.9908 11.1904 11.8238 10.9452 11.5787C10.7 11.3335 10.5331 11.0211 10.4654 10.681C10.3978 10.341 10.4325 9.98846 10.5652 9.66812C10.6979 9.34778 10.9226 9.07398 11.2109 8.88134Z" fill="black"/>
<path d="M12.1846 20.25L12.1858 20L12.1834 20L12.1846 20.25ZM11.9608 20.2059L12.0566 19.975L12.0566 19.975L11.9608 20.2059ZM12.4083 20.2059L12.3125 19.975L12.3125 19.975L12.4083 20.2059ZM12.5975 20.0786L12.4208 19.9018L12.4197 19.9029L12.5975 20.0786ZM17.0855 15.5906L16.9088 15.4137L16.9087 15.4138L17.0855 15.5906ZM18.9854 12.0401L19.2306 12.0889L18.9854 12.0401ZM18.592 8.03248L18.361 8.12809L18.592 8.03248ZM16.038 4.91918L15.899 5.12703H15.899L16.038 4.91918ZM8.33119 4.91918L8.47011 5.12703L8.33119 4.91918ZM5.77718 8.03248L6.00818 8.12809L5.77718 8.03248ZM5.38377 12.0401L5.62895 11.9912L5.38377 12.0401ZM7.28362 15.5906L7.4604 15.4138L7.46031 15.4137L7.28362 15.5906ZM11.7716 20.0786L11.9495 19.9029L11.9484 19.9018L11.7716 20.0786ZM12.1846 4.92381L12.1848 4.67381L12.1844 4.67381L12.1846 4.92381ZM8.98337 5.89681L8.84439 5.689L8.98337 5.89681ZM15.3858 5.89681L15.2468 6.10462V6.10462L15.3858 5.89681ZM17.5077 8.48369L17.2767 8.57934L17.5077 8.48369ZM17.8358 11.8134L18.081 11.8621L17.8358 11.8134ZM16.2596 14.7647L16.4364 14.9414L16.4365 14.9414L16.2596 14.7647ZM12.1846 18.8397L12.0078 19.0165L12.1846 19.1933L12.3614 19.0165L12.1846 18.8397ZM8.10954 14.7647L7.93268 14.9414L7.93276 14.9414L8.10954 14.7647ZM6.53335 11.8134L6.77856 11.7647L6.53335 11.8134ZM6.86146 8.48369L7.09244 8.57934L6.86146 8.48369ZM14.2509 12.4051L14.0741 12.2283L14.2509 12.4051ZM14.6143 8.71571L14.4064 8.8546L14.6143 8.71571ZM13.303 7.63955L13.3987 7.40858L13.303 7.63955ZM10.1188 8.27293L9.942 8.09616H9.942L10.1188 8.27293ZM9.48539 11.4572L9.25442 11.5528L9.48539 11.4572ZM11.2109 8.88134L11.072 8.67347V8.67347L11.2109 8.88134ZM13.4245 9.09936L13.6013 8.92259V8.92259L13.4245 9.09936ZM11.8428 12.0584L11.8916 11.8132H11.8916L11.8428 12.0584ZM10.4654 10.681L10.7106 10.6323V10.6323L10.4654 10.681ZM12.1834 20C12.1399 20.0002 12.0968 19.9917 12.0566 19.975L11.865 20.4368C11.9666 20.479 12.0757 20.5005 12.1858 20.5L12.1834 20ZM12.3125 19.975C12.2723 19.9917 12.2292 20.0002 12.1858 20L12.1834 20.5C12.2935 20.5005 12.4025 20.479 12.5042 20.4368L12.3125 19.975ZM12.4197 19.9029C12.3891 19.9338 12.3527 19.9584 12.3125 19.975L12.5042 20.4368C12.6059 20.3946 12.6981 20.3326 12.7754 20.2542L12.4197 19.9029ZM16.9087 15.4138L12.4208 19.9018L12.7743 20.2554L17.2623 15.7674L16.9087 15.4138ZM18.7402 11.9912C18.4817 13.2881 17.8444 14.4791 16.9088 15.4137L17.2622 15.7675C18.2677 14.763 18.9527 13.4828 19.2306 12.0889L18.7402 11.9912ZM18.361 8.12809C18.8667 9.34994 18.9987 10.6943 18.7402 11.9912L19.2306 12.0889C19.5084 10.6951 19.3665 9.25011 18.823 7.93687L18.361 8.12809ZM15.899 5.12703C16.9985 5.86185 17.8552 6.90624 18.361 8.12809L18.823 7.93687C18.2794 6.62363 17.3585 5.50111 16.1769 4.71133L15.899 5.12703ZM12.1846 4C13.507 4 14.7996 4.39222 15.899 5.12703L16.1769 4.71133C14.9952 3.92155 13.6059 3.5 12.1846 3.5V4ZM8.47011 5.12703C9.56953 4.39222 10.8622 4 12.1846 4V3.5C10.7633 3.5 9.37393 3.92155 8.19227 4.71133L8.47011 5.12703ZM6.00818 8.12809C6.51391 6.90624 7.37069 5.86185 8.47011 5.12703L8.19227 4.71133C7.01061 5.50111 6.08975 6.62363 5.54619 7.93687L6.00818 8.12809ZM5.62895 11.9912C5.37047 10.6943 5.50244 9.34994 6.00818 8.12809L5.54619 7.93687C5.00262 9.25011 4.86078 10.6951 5.1386 12.0889L5.62895 11.9912ZM7.46031 15.4137C6.52477 14.4791 5.88744 13.2881 5.62895 11.9912L5.1386 12.0889C5.41642 13.4828 6.10142 14.763 7.10694 15.7675L7.46031 15.4137ZM11.9484 19.9018L7.4604 15.4138L7.10685 15.7674L11.5948 20.2554L11.9484 19.9018ZM12.0566 19.975C12.0165 19.9584 11.9801 19.9338 11.9495 19.9029L11.5937 20.2542C11.6711 20.3326 11.7633 20.3946 11.865 20.4368L12.0566 19.975ZM12.1844 4.67381C10.9952 4.67464 9.83291 5.02792 8.84439 5.689L9.12234 6.10462C10.0287 5.49849 11.0944 5.17457 12.1848 5.17381L12.1844 4.67381ZM15.5248 5.689C14.5362 5.02792 13.374 4.67464 12.1848 4.67381L12.1844 5.17381C13.2748 5.17457 14.3404 5.49849 15.2468 6.10462L15.5248 5.689ZM17.7387 8.38805C17.2837 7.28932 16.5133 6.35008 15.5248 5.689L15.2468 6.10462C16.1532 6.71076 16.8596 7.57193 17.2767 8.57934L17.7387 8.38805ZM18.081 11.8621C18.3128 10.6957 18.1937 9.48678 17.7387 8.38805L17.2767 8.57934C17.6939 9.58675 17.8031 10.6952 17.5906 11.7647L18.081 11.8621ZM16.4365 14.9414C17.277 14.1 17.8492 13.0285 18.081 11.8621L17.5906 11.7647C17.3781 12.8341 16.8534 13.8166 16.0827 14.588L16.4365 14.9414ZM12.3614 19.0165L16.4364 14.9414L16.0828 14.5879L12.0078 18.6629L12.3614 19.0165ZM7.93276 14.9414L12.0078 19.0165L12.3614 18.6629L8.28632 14.5879L7.93276 14.9414ZM6.28815 11.8621C6.51992 13.0285 7.0922 14.1 7.93268 14.9414L8.2864 14.588C7.51578 13.8166 6.99107 12.8341 6.77856 11.7647L6.28815 11.8621ZM6.63048 8.38805C6.1755 9.48678 6.05637 10.6957 6.28815 11.8621L6.77856 11.7647C6.56605 10.6952 6.67527 9.58675 7.09244 8.57934L6.63048 8.38805ZM8.84439 5.689C7.85587 6.35008 7.08545 7.28932 6.63048 8.38805L7.09244 8.57934C7.5096 7.57193 8.21598 6.71076 9.12234 6.10462L8.84439 5.689ZM12.1848 13.0109C11.6564 13.0109 11.1398 12.8542 10.7004 12.5606L10.4226 12.9763C10.9443 13.3249 11.5575 13.5109 12.1848 13.5109V13.0109ZM14.0741 12.2283C13.5731 12.7294 12.8935 13.0109 12.1848 13.0109V13.5109C13.0261 13.5109 13.8329 13.1767 14.4277 12.5819L14.0741 12.2283ZM14.8567 10.339C14.8567 11.0476 14.5752 11.7272 14.0741 12.2283L14.4277 12.5819C15.0225 11.987 15.3567 11.1802 15.3567 10.339H14.8567ZM14.4064 8.8546C14.7 9.29398 14.8567 9.81056 14.8567 10.339H15.3567C15.3567 9.71167 15.1707 9.09842 14.8222 8.57681L14.4064 8.8546ZM13.2073 7.87052C13.6955 8.07275 14.1128 8.41521 14.4064 8.8546L14.8222 8.57681C14.4736 8.0552 13.9782 7.64865 13.3987 7.40858L13.2073 7.87052ZM11.6636 7.71848C12.1819 7.61538 12.7191 7.6683 13.2073 7.87052L13.3987 7.40858C12.8191 7.16851 12.1813 7.1057 11.566 7.22809L11.6636 7.71848ZM10.2955 8.44971C10.6692 8.07604 11.1453 7.82157 11.6636 7.71848L11.566 7.22809C10.9508 7.35047 10.3856 7.65256 9.942 8.09616L10.2955 8.44971ZM9.56432 9.81775C9.66741 9.29946 9.92188 8.82338 10.2955 8.44971L9.942 8.09616C9.4984 8.53975 9.19631 9.10493 9.07392 9.72021L9.56432 9.81775ZM9.71636 11.3615C9.51413 10.8733 9.46122 10.336 9.56432 9.81775L9.07392 9.72021C8.95154 10.3355 9.01435 10.9732 9.25442 11.5528L9.71636 11.3615ZM10.7004 12.5606C10.261 12.267 9.91859 11.8497 9.71636 11.3615L9.25442 11.5528C9.49449 12.1324 9.90104 12.6278 10.4226 12.9763L10.7004 12.5606ZM12.1848 8.33589C11.7887 8.33589 11.4014 8.45337 11.072 8.67347L11.3498 9.08921C11.5969 8.92404 11.8876 8.83589 12.1848 8.83589V8.33589ZM13.6013 8.92259C13.2256 8.54693 12.7161 8.33589 12.1848 8.33589V8.83589C12.5835 8.83589 12.9658 8.99425 13.2477 9.27614L13.6013 8.92259ZM14.188 10.339C14.188 9.80775 13.9769 9.29825 13.6013 8.92259L13.2477 9.27614C13.5296 9.55803 13.688 9.94036 13.688 10.339H14.188ZM13.8504 11.4519C14.0705 11.1225 14.188 10.7352 14.188 10.339H13.688C13.688 10.6363 13.5998 10.9269 13.4346 11.1741L13.8504 11.4519ZM12.9514 12.1897C13.3174 12.038 13.6303 11.7813 13.8504 11.4519L13.4346 11.1741C13.2695 11.4213 13.0347 11.6139 12.7601 11.7277L12.9514 12.1897ZM11.7941 12.3036C12.1826 12.3809 12.5854 12.3413 12.9514 12.1897L12.7601 11.7277C12.4854 11.8415 12.1832 11.8712 11.8916 11.8132L11.7941 12.3036ZM10.7684 11.7554C11.0486 12.0356 11.4055 12.2264 11.7941 12.3036L11.8916 11.8132C11.6 11.7553 11.3322 11.6121 11.122 11.4019L10.7684 11.7554ZM10.2202 10.7298C10.2975 11.1184 10.4883 11.4753 10.7684 11.7554L11.122 11.4019C10.9118 11.1917 10.7686 10.9238 10.7106 10.6323L10.2202 10.7298ZM10.3342 9.57245C10.1826 9.93847 10.1429 10.3412 10.2202 10.7298L10.7106 10.6323C10.6526 10.3407 10.6824 10.0384 10.7961 9.76379L10.3342 9.57245ZM11.072 8.67347C10.7426 8.89358 10.4858 9.20643 10.3342 9.57245L10.7961 9.76379C10.9099 9.48913 11.1026 9.25437 11.3498 9.08921L11.072 8.67347Z" fill="black"/>
</svg>
