<svg xmlns="http://www.w3.org/2000/svg" width="40" height="40" viewBox="0 0 40 40">
    <g data-name="Group 86936">
        <g data-name="Group 96915">
            <g data-name="Group 86928" transform="translate(10 11)">
                <path data-name="Path 173641" d="M19.874 3.59a2.612 2.612 0 0 0-2.015-.948H3.712l-.037-.309A2.631 2.631 0 0 0 1.069 0H.875a.881.881 0 0 0 0 1.761h.194a.877.877 0 0 1 .869.777l1.2 10.3a4.385 4.385 0 0 0 4.345 3.89h9.138a.881.881 0 0 0 0-1.761H7.487a2.626 2.626 0 0 1-2.467-1.758h10.43a4.383 4.383 0 0 0 4.306-3.622l.687-3.834a2.649 2.649 0 0 0-.569-2.163zm-1.149 1.85-.688 3.834a2.63 2.63 0 0 1-2.587 2.173H4.742L3.918 4.4h13.94a.873.873 0 0 1 .675.314.885.885 0 0 1 .192.726z" style="stroke:#000;stroke-width:.25px"/>
                <circle data-name="Ellipse 10228" cx="1.707" cy="1.707" r="1.707" transform="translate(4.397 17.585)" style="stroke:#000;stroke-width:.25px"/>
                <circle data-name="Ellipse 10229" cx="1.707" cy="1.707" r="1.707" transform="translate(13.191 17.585)" style="stroke:#000;stroke-width:.25px"/>
            </g>
            <path data-name="Rectangle 153544" transform="translate(8 9)" style="fill:none" d="M0 0h24v24H0z"/>
        </g>
    </g>
</svg>
