<svg width="20" height="20" viewBox="0 0 20 20" fill="none" xmlns="http://www.w3.org/2000/svg">
<g clip-path="url(#clip0_9329_48400)">
<path d="M14.2875 7.17159H13.3342C13.6447 6.89919 13.8911 6.56155 14.0559 6.18282C14.2207 5.80408 14.2998 5.39361 14.2875 4.98076C14.2881 4.90876 14.2746 4.83733 14.2476 4.77059C14.2205 4.70385 14.1806 4.64311 14.13 4.59185C14.0795 4.54059 14.0193 4.49982 13.9529 4.47189C13.8866 4.44396 13.8153 4.42941 13.7433 4.42909C13.6707 4.42864 13.5988 4.44261 13.5317 4.47018C13.4645 4.49775 13.4035 4.53836 13.3522 4.58968C13.3009 4.641 13.2603 4.70199 13.2328 4.76912C13.2052 4.83625 13.1912 4.90819 13.1917 4.98076C13.1917 6.41492 11.8992 6.91158 10.9058 7.08492C11.2687 6.43763 11.4889 5.72018 11.5516 4.98076C11.5505 4.54415 11.3766 4.12574 11.0679 3.81701C10.7592 3.50828 10.3408 3.33435 9.90415 3.33325C9.46844 3.3348 9.05118 3.50913 8.74387 3.818C8.43656 4.12688 8.26433 4.54505 8.265 4.98076C8.32056 5.72166 8.54154 6.44068 8.91166 7.08492C7.91833 6.91158 6.6258 6.41826 6.6258 4.98076C6.62536 4.83458 6.56711 4.69451 6.46375 4.59115C6.36039 4.48779 6.22032 4.42953 6.07414 4.42909C6.00214 4.42941 5.93095 4.44396 5.86459 4.47189C5.79822 4.49982 5.738 4.54059 5.68743 4.59185C5.63687 4.64311 5.59696 4.70385 5.56994 4.77059C5.54292 4.83733 5.52935 4.90876 5.53001 4.98076V5.08325C5.53001 5.4786 5.61435 5.86939 5.77746 6.22952C5.94057 6.58965 6.17864 6.91083 6.4758 7.17159H5.52498C5.23727 7.17159 4.95241 7.22825 4.68661 7.33835C4.4208 7.44845 4.17929 7.60983 3.97585 7.81326C3.77242 8.0167 3.611 8.25822 3.5009 8.52402C3.3908 8.78983 3.33417 9.07471 3.33417 9.36242V9.90659C3.33384 10.0506 3.36192 10.1932 3.41687 10.3263C3.47183 10.4594 3.55258 10.5804 3.6544 10.6822C3.75622 10.784 3.87714 10.8647 4.01024 10.9197C4.14334 10.9746 4.28601 11.0028 4.43001 11.0024V13.7374C4.43199 14.4642 4.72153 15.1606 5.23542 15.6745C5.74931 16.1884 6.44572 16.4779 7.17247 16.4799H12.6417C13.3684 16.4779 14.0648 16.1884 14.5787 15.6745C15.0926 15.1606 15.3822 14.4642 15.3841 13.7374V11.0024C15.5281 11.0028 15.6708 10.9746 15.8039 10.9197C15.937 10.8647 16.0579 10.784 16.1597 10.6822C16.2616 10.5804 16.3423 10.4594 16.3972 10.3263C16.4522 10.1932 16.4803 10.0506 16.48 9.90659V9.36242C16.4806 9.07439 16.4244 8.78907 16.3144 8.52285C16.2044 8.25664 16.043 8.0148 15.8392 7.8112C15.6355 7.60761 15.3935 7.4463 15.1272 7.33653C14.8609 7.22676 14.5755 7.17071 14.2875 7.17159V7.17159ZM9.35834 15.3833H7.16748C6.9511 15.3834 6.73682 15.3408 6.53689 15.2581C6.33696 15.1753 6.15528 15.054 6.00227 14.901C5.84927 14.7479 5.72792 14.5663 5.64516 14.3664C5.56241 14.1664 5.51988 13.9521 5.51999 13.7358V11.0008H9.35834V15.3833ZM9.35834 9.90575H4.42497V9.36159C4.42475 9.2173 4.45312 9.07441 4.50839 8.94113C4.56365 8.80785 4.64473 8.68682 4.74698 8.58503C4.84924 8.48324 4.97061 8.4027 5.10414 8.34805C5.23767 8.29339 5.3807 8.2657 5.52498 8.26658H9.35834V9.90575ZM9.35834 4.97992C9.3596 4.83529 9.41709 4.69683 9.51866 4.59386C9.62023 4.49089 9.75787 4.4315 9.90247 4.42825C10.0474 4.43265 10.1852 4.49217 10.2877 4.5947C10.3902 4.69722 10.4498 4.835 10.4542 4.97992C10.3834 5.56069 10.1957 6.12113 9.90247 6.62742C9.60834 6.12244 9.42303 5.56156 9.35834 4.98076V4.97992ZM14.2841 13.7358C14.283 14.1724 14.1091 14.5908 13.8004 14.8995C13.4916 15.2082 13.0732 15.3822 12.6366 15.3833H10.45V11.0016H14.2883L14.2841 13.7358ZM15.38 9.90242H10.4466V8.26658H14.285C14.429 8.26625 14.5716 8.29438 14.7047 8.34933C14.8378 8.40428 14.9588 8.48499 15.0606 8.58681C15.1624 8.68864 15.2431 8.80957 15.2981 8.94268C15.353 9.07578 15.3812 9.21842 15.3808 9.36242L15.38 9.90242Z" fill="black"/>
</g>
<defs>
<clipPath id="clip0_9329_48400">
<rect width="20" height="20" fill="white"/>
</clipPath>
</defs>
</svg>
