<svg xmlns="http://www.w3.org/2000/svg" width="24.499" height="24.498" viewBox="0 0 24.499 24.498">
    <g data-name="Group 104319">
        <g data-name="Group 86930">
            <path data-name="Path 8477" d="M20.484 3.515a12 12 0 0 0-16.97 16.969 12 12 0 0 0 16.97-16.969zM12 22.592a10.556 10.556 0 0 1-7.35-2.973 7.736 7.736 0 0 1 14.7 0A10.557 10.557 0 0 1 12 22.592zM8.484 9.374A3.515 3.515 0 1 1 12 12.89a3.519 3.519 0 0 1-3.516-3.516zm11.921 9.063a9.166 9.166 0 0 0-5.52-5.079 4.922 4.922 0 1 0-5.771 0 9.166 9.166 0 0 0-5.521 5.079 10.593 10.593 0 1 1 16.812 0z" transform="translate(.25 .25)" style="stroke:#000;stroke-width:.5px"/>
        </g>
        <path data-name="Rectangle 157200" transform="translate(.249 .25)" style="fill:none" d="M0 0h24v24H0z"/>
    </g>
</svg>
